<svg id="Ebene_1" data-name="Ebene 1" xmlns="http://www.w3.org/2000/svg" viewBox="0 0 1148.03 657.64"><path id="bottom_outsideCutPath" data-name="bottom outsideCutPath" d="M21.36,355.12H7.19v42.52H21.36v49.6H85.14v14.18h42.52V447.24h42.52v14.18H212.7V447.24h42.52v14.18h42.52V447.24h42.52v14.18h42.52V447.24H425.3v14.18h42.52V447.24h42.52v14.18h42.52V447.24h42.52v14.18H637.9V447.24h42.52v14.18h42.52V447.24h42.51v14.18H808V447.24h42.52v14.18H893V447.24h42.52v14.18h42.52V447.24h42.52v14.18h42.52V447.24h63.78v-49.6h14.18V355.12h-14.18l0-63.79H21.36Z" fill="none" stroke="#3c6032" stroke-linecap="round" stroke-miterlimit="11.34" stroke-width="0.28"/><path id="left_outsideCutPath" data-name="left outsideCutPath" d="M21.36,259.62H66.71v14.17h42.52V259.62h42.52v14.17h42.52V259.62h42.52v14.17h42.52V259.62h42.52v14.17h42.52V259.62h42.52v14.17h42.52V259.62h42.52v14.17h42.52V259.62H577v14.17h42.52V259.62h45.35V210H650.65V167.5h14.17V103.72H21.36V167.5H35.53V210H21.36v49.6Z" fill="none" stroke="#3c6032" stroke-linecap="round" stroke-miterlimit="11.34" stroke-width="0.28"/><path id="bottom_outsideCutPath-2" data-name="bottom outsideCutPath" d="M21.36,542.74H7.19v42.52H21.36v49.6H85.14V649h42.52V634.86h42.52V649H212.7V634.86h42.52V649h42.52V634.86h42.52V649h42.52V634.86H425.3V649h42.52V634.86h42.52V649h42.52V634.86h42.52V649H637.9V634.86h42.52V649h42.52V634.86h42.51V649H808V634.86h42.52V649H893V634.86h42.52V649h42.52V634.86h42.52V649h42.52V634.86h63.78v-49.6h14.18V542.74h-14.18l0-63.79H21.36Z" fill="none" stroke="#3c6032" stroke-linecap="round" stroke-miterlimit="11.34" stroke-width="0.28"/></svg>