<svg id="Ebene_1" data-name="Ebene 1" xmlns="http://www.w3.org/2000/svg" viewBox="0 0 1148.03 657.64"><g id="svgGroup"><path id="left_outsideCutPath" data-name="left outsideCutPath" d="M481.05,257.93h643.46V222.49h-14.17V180h14.17V158.71h-45.35V144.54h-42.52v14.17H994.12V144.54H951.6v14.17H909.08V144.54H866.56v14.17H824V144.54H781.52v14.17H739V144.54H696.48v14.17H654V144.54H611.44v14.17H568.92V144.54H526.4v14.17H481.05V180h14.17v42.52H481.05Z" fill="none" stroke="#3c6032" stroke-linecap="round" stroke-miterlimit="11.34" stroke-width="0.28"/><path id="right_outsideCutPath" data-name="right outsideCutPath" d="M1127.69,288.49h-45.36V274.32h-42.52v14.17H997.29V274.32H954.78v14.17H912.26V274.32H869.74v14.17H827.22V274.32H784.7v14.17H742.18V274.32H699.66v14.17H657.14V274.32H614.62v14.17H572.1V274.32H529.58v14.17H484.22v21.26H498.4v42.52H484.22V387.7H1126.8l.89-35.43h-14.17V309.75h14.17Z" fill="none" stroke="#3c6032" stroke-linecap="round" stroke-miterlimit="11.34" stroke-width="0.28"/><path id="bottom_outsideCutPath" data-name="bottom outsideCutPath" d="M21.66,423v21.26H7.48v42.52H21.66v21.26H85.44v14.18H128V508.07h42.52v14.18H213V508.07h42.52v14.18H298V508.07h42.52v14.18h42.52V508.07h42.52v14.18h42.52V508.07h42.52v14.18h42.52V508.07h42.52v14.18h42.52V508.07h42.52v14.18h42.52V508.07h42.52v14.18h42.52V508.07h42.52v14.18h42.52V508.07h42.52v14.18h42.52V508.07h42.52v14.18h42.52V508.07h63.78V486.81h14.17V444.29h-14.17V408.86H21.58Z" fill="none" stroke="#3c6032" stroke-linecap="round" stroke-miterlimit="11.34" stroke-width="0.28"/><path id="bottom_outsideCutPath-2" data-name="bottom outsideCutPath" d="M22.84,543.62v21.26H8.67V607.4H22.84v21.26H86.62v14.17h42.52V628.66h42.52v14.17h42.52V628.66H256.7v14.17h42.52V628.66h42.52v14.17h42.52V628.66h42.52v14.17H469.3V628.66h42.52v14.17h42.52V628.66h42.52v14.17h42.52V628.66H681.9v14.17h42.52V628.66h42.52v14.17h42.52V628.66H852v14.17H894.5V628.66H937v14.17h42.51V628.66h42.52v14.17h42.52V628.66h63.78V607.4h14.18V564.88h-14.18V529.44H22.77Z" fill="none" stroke="#3c6032" stroke-linecap="round" stroke-miterlimit="11.34" stroke-width="0.28"/></g></svg>