<svg id="Ebene_1" data-name="Ebene 1" xmlns="http://www.w3.org/2000/svg" viewBox="0 0 1148.03 657.64"><path id="left_outsideCutPath" data-name="left outsideCutPath" d="M21.36,187.66H66.71v14.17h42.52V187.66h42.52v14.17h42.52V187.66h42.52v14.17h42.52V187.66h42.52v14.17h42.52V187.66h42.52v14.17h42.52V187.66h42.52v14.17h42.52V187.66H577v14.17h42.52V187.66h45.35V138.05H650.65V95.53h14.17V53l-.44-21.26h-643V95.53H35.53v42.52H21.36v49.61Z" fill="none" stroke="#3c6032" stroke-linecap="round" stroke-miterlimit="11.34" stroke-width="0.28"/><rect x="902.86" y="41.94" width="198.43" height="283.46" fill="none" stroke="red" stroke-linecap="round" stroke-miterlimit="11.34" stroke-width="0.28"/><path id="right_outsideCutPath" data-name="right outsideCutPath" d="M356.82,492.52V528H342.65v42.52h14.17v35.44h21.26V591.73H420.6v14.18h42.52V591.73h42.52v14.18h42.52V591.73h42.52v14.18h21.26V570.47h14.17V528H611.94V492.52Z" fill="none" stroke="red" stroke-linecap="round" stroke-miterlimit="11.34" stroke-width="0.28"/><path id="back_outsideCutPath" data-name="back outsideCutPath" d="M665.27,353.16v35.43h14.17v42.52H665.27v35.44H863.69V431.11H849.52V388.59h14.17V353.16H828.26v14.18H785.74V353.16H743.22v14.18H700.7V353.16Z" fill="none" stroke="red" stroke-linecap="round" stroke-miterlimit="11.34" stroke-width="0.28"/><path id="back_outsideCutPath-2" data-name="back outsideCutPath" d="M665.94,488.32v35.44h14.17v42.51H665.94v35.44h35.43V587.53h42.52v14.18h42.52V587.53h42.52v14.18h35.43V566.27H850.19V523.76h14.17V488.32Z" fill="none" stroke="red" stroke-linecap="round" stroke-miterlimit="11.34" stroke-width="0.28"/><path id="top_outsideCutPath" data-name="top outsideCutPath" d="M917,365v21.26H902.86v42.52H917v42.52H902.86v42.52H917V556.3H902.86v42.52H917v21.26h21.26v14.17h42.52V620.08h42.52v14.17h42.52V620.08h21.26V598.82h14.18V556.3h-14.18V513.78h14.18V471.26h-14.18V428.74h14.18V386.22h-14.18V365h-21.26V350.79h-42.52V365H980.81V350.79H938.29V365Z" fill="none" stroke="red" stroke-linecap="round" stroke-miterlimit="11.34" stroke-width="0.28"/><path id="right_outsideCutPath-2" data-name="right outsideCutPath" d="M356.38,350.79v35.43H342.2v42.52h14.18v35.43h21.26V450h42.52v14.17h42.52V450H505.2v14.17h42.52V450h42.52v14.17h21.25V428.74h14.18V386.22H611.49V350.79Z" fill="none" stroke="red" stroke-linecap="round" stroke-miterlimit="11.34" stroke-width="0.28"/></svg>