<svg id="Ebene_1" data-name="Ebene 1" xmlns="http://www.w3.org/2000/svg" viewBox="0 0 1148.03 657.64"><path id="front_outsideCutPath" data-name="front outsideCutPath" d="M8.08,7.09V52.44H22.25V95H8.08v42.52H22.25V180H8.08v42.52H22.25V265H8.08v42.52H22.25v42.52H8.08V392.6H22.25v42.52H8.08v42.52H22.25v42.52H8.08v42.52H22.25V605.2H8.08v45.35H86V636.38h42.52v14.17h42.52V636.38h42.52v14.17h42.52V636.38h42.52v14.17h42.52V636.38h42.52v14.17h42.52V636.38h42.52v14.17h42.52V636.38h42.52v14.17h42.52V636.38h42.51v14.17H681.3V636.38h42.52v14.17h42.52V636.38h42.52v14.17h42.52V636.38H893.9v14.17h42.52V636.38h42.52v14.17h42.52V636.38H1064v14.17h78V605.2h-14.17V562.68h14.17V520.16h-14.17V477.64h14.17V435.12h-14.17V392.6h14.17V350.08h-14.17V307.56h14.17V265h-14.17V222.52h14.17V180h-14.17V137.48h14.17V95h-14.17V52.44h14.17V7.09h-78V21.26h-42.52V7.09H978.94V21.26H936.42V7.09H893.9V21.26H851.38V7.09H808.86V21.26H766.34V7.09H723.82V21.26H681.3V7.09H638.78V21.26H596.27V7.09H553.75V21.26H511.23V7.09H468.71V21.26H426.19V7.09H383.67V21.26H341.15V7.09H298.63V21.26H256.11V7.09H213.59V21.26H171.07V7.09H128.55V21.26H86V7.09H8.08Z" fill="none" stroke="#3c6032" stroke-linecap="round" stroke-miterlimit="11.34" stroke-width="0.28"/><circle cx="419.79" cy="294.85" r="14.17" fill="none" stroke="#3c6032" stroke-miterlimit="10"/><circle cx="731.22" cy="294.85" r="14.17" fill="none" stroke="#3c6032" stroke-miterlimit="10"/><circle cx="419.79" cy="522.85" r="14.17" fill="none" stroke="#3c6032" stroke-miterlimit="10"/><circle cx="731.22" cy="522.85" r="14.17" fill="none" stroke="#3c6032" stroke-miterlimit="10"/><circle cx="419.79" cy="407.85" r="14.17" fill="none" stroke="#3c6032" stroke-miterlimit="10"/><circle cx="731.22" cy="407.85" r="14.17" fill="none" stroke="#3c6032" stroke-miterlimit="10"/><polyline points="277.68 338.39 277.68 536.82 135.94 536.82 135.94 338.39" fill="none" stroke="#3c6032" stroke-miterlimit="10" stroke-width="0.75"/><polyline points="1014.57 338.39 1014.57 536.82 872.83 536.82 872.83 338.39" fill="none" stroke="#3c6032" stroke-miterlimit="10" stroke-width="0.75"/></svg>